<svg width="160" height="160" viewBox="0 0 160 160" fill="none" xmlns="http://www.w3.org/2000/svg">
  <rect x="14" y="14" width="132" height="132" rx="42" fill="url(#bg)"/>
  <path d="M48 49C48 43.4772 52.4772 39 58 39H87C109.091 39 127 56.9086 127 79C127 101.091 109.091 119 87 119H58C52.4772 119 48 114.523 48 109V49Z" fill="white" fill-opacity="0.94"/>
  <path d="M69 58H86C97.598 58 107 67.402 107 79C107 90.598 97.598 100 86 100H69V58Z" fill="url(#core)"/>
  <path d="M37 81C37 71.6112 44.6112 64 54 64H61V98H54C44.6112 98 37 90.3888 37 81Z" fill="url(#leaf)" fill-opacity="0.98"/>
  <circle cx="107" cy="53" r="10" fill="#14C8AF"/>
  <defs>
    <linearGradient id="bg" x1="24" y1="22" x2="132" y2="138" gradientUnits="userSpaceOnUse">
      <stop stop-color="#4368FF"/>
      <stop offset="1" stop-color="#0FC5B0"/>
    </linearGradient>
    <linearGradient id="core" x1="70" y1="61" x2="109" y2="97" gradientUnits="userSpaceOnUse">
      <stop stop-color="#2647D0"/>
      <stop offset="1" stop-color="#16BBAA"/>
    </linearGradient>
    <linearGradient id="leaf" x1="39" y1="66" x2="63" y2="95" gradientUnits="userSpaceOnUse">
      <stop stop-color="#F6A85A"/>
      <stop offset="1" stop-color="#FF7C45"/>
    </linearGradient>
  </defs>
</svg>
